<svg width="390" height="390" viewBox="0 0 390 390" fill="none" xmlns="http://www.w3.org/2000/svg">
<rect x="5" y="5" width="380" height="380" rx="10" stroke="black"/>
<rect x="2.5" y="2.5" width="385" height="385" rx="12.5" fill="#F59E0B"/>
<rect x="2.5" y="2.5" width="385" height="385" rx="12.5" stroke="black" stroke-width="5"/>
<rect x="2.5" y="2.5" width="385" height="385" rx="12.5" stroke="black" stroke-width="5"/>
<path d="M170.4 262L160 227.4H107.8L97.4 262H78.2L122.4 124.2H146.4L190.4 262H170.4ZM112.4 212H155.4L134 140L112.4 212ZM252.048 203.6H230.648V262H211.648V124.2H247.848C265.048 124.2 278.048 127.467 286.848 134C295.782 140.533 300.248 150.267 300.248 163.2C300.248 172.8 297.782 180.6 292.848 186.6C287.915 192.6 280.448 197.133 270.448 200.2L307.648 262H285.048L252.048 203.6ZM249.848 189C259.848 189 267.382 187 272.448 183C277.515 178.867 280.048 172.267 280.048 163.2C280.048 154.667 277.448 148.533 272.248 144.8C267.182 140.933 258.982 139 247.648 139H230.648V189H249.848Z" fill="black"/>
</svg>
